<svg viewBox="0 0 20 20" xmlns="http://www.w3.org/2000/svg" xmlns:xlink="http://www.w3.org/1999/xlink" width="20.000000" height="20.000000" fill="none">
	<rect id="Archive " width="20.000000" height="20.000000" x="0.000000" y="0.000000" fill="rgb(255,255,255)" fill-opacity="0" />
	<path id="Vector" d="M17.5 13.5141C17.5 15.9708 15.7657 17.5 13.3113 17.5L6.68865 17.5C4.23432 17.5 2.5 15.9708 2.5 13.5133L2.5 6.48513C2.5 4.02837 4.23432 2.5 6.68865 2.5L13.3113 2.5C15.7657 2.5 17.5 4.03568 17.5 6.48513L17.5 13.5141Z" fill-rule="nonzero" stroke="rgb(43,48,59)" stroke-linecap="round" stroke-linejoin="round" stroke-width="1.5" />
	<path id="Vector" d="M12.5 11.6667L9.9985 14.1667L7.5 11.6667" fill-rule="nonzero" stroke="rgb(43,48,59)" stroke-linecap="round" stroke-linejoin="round" stroke-width="1.5" />
	<path id="Vector" d="M5.83333 0L0 0" stroke="rgb(43,48,59)" stroke-linecap="round" stroke-linejoin="round" stroke-width="1.5" transform="matrix(0,1,-1,0,9.99835,8.33331)" />
	<path id="Vector" d="M17.4447 5.83337L2.54883 5.83337" stroke="rgb(43,48,59)" stroke-linecap="round" stroke-linejoin="round" stroke-width="1.5" />
</svg>
