<svg viewBox="0 0 24 25" xmlns="http://www.w3.org/2000/svg" xmlns:xlink="http://www.w3.org/1999/xlink" width="24.000000" height="25.000000" fill="none">
	<rect id="Google" width="24.000000" height="25.000000" x="0.000000" y="0.000000" fill="rgb(255,255,255)" fill-opacity="0" />
	<path id="Vector" d="M20.8379 14.7181C20.9459 14.1681 20.9999 13.5881 20.9999 13.0081C20.9999 12.6161 20.9739 12.2341 20.9239 11.8611C20.8869 11.5871 20.6429 11.3881 20.3669 11.3881L12.5619 11.3881C12.2519 11.3881 11.9999 11.6401 11.9999 11.9501L11.9999 14.1561C11.9999 14.4661 12.2519 14.7181 12.5619 14.7181L16.8369 14.7181C17.0129 14.7181 17.1419 14.8981 17.0759 15.0611C16.1409 17.3711 13.6859 18.8871 10.9439 18.3801C8.83793 17.9911 7.11193 16.3211 6.65993 14.2281C5.89293 10.6761 8.57693 7.53814 11.9999 7.53814C13.1219 7.53814 14.1619 7.87514 15.0289 8.45214C15.2609 8.60614 15.5639 8.59114 15.7599 8.39214L17.4619 6.65914C17.6939 6.42214 17.6799 6.02814 17.4159 5.82714C15.9749 4.73114 14.1929 4.06514 12.2549 4.01214C7.38293 3.87714 3.16393 7.83514 3.00493 12.7061C2.83793 17.8141 6.93193 22.0081 11.9999 22.0081C16.3829 22.0081 20.0369 18.8681 20.8379 14.7181Z" fill="rgb(14,18,27)" fill-rule="evenodd" />
</svg>
